<svg xmlns="http://www.w3.org/2000/svg" viewBox="0 0 30 30" width="30" height="30">
	<style>
		tspan { white-space:pre }
		.shp0 { fill: #4a4a4a } 
	</style>
	<g id="Layer">
		<g id="Layer">
			<path id="Layer" fill-rule="evenodd" class="shp0" d="M15.22 26.24C15.22 27.7 14.03 28.88 12.58 28.88C11.12 28.88 9.94 27.7 9.94 26.24C9.94 24.79 11.12 23.6 12.58 23.6C14.03 23.6 15.22 24.79 15.22 26.24ZM13.74 26.24C13.74 25.6 13.22 25.08 12.58 25.08C11.94 25.08 11.41 25.6 11.41 26.24C11.41 26.88 11.94 27.41 12.58 27.41C13.22 27.41 13.74 26.88 13.74 26.24Z" />
		</g>
	</g>
	<g id="Layer">
		<g id="Layer">
			<path id="Layer" fill-rule="evenodd" class="shp0" d="M24.47 26.24C24.47 27.7 23.29 28.88 21.83 28.88C20.38 28.88 19.2 27.7 19.2 26.24C19.2 24.79 20.38 23.6 21.83 23.6C23.29 23.6 24.47 24.79 24.47 26.24ZM23 26.24C23 25.6 22.48 25.08 21.83 25.08C21.19 25.08 20.67 25.6 20.67 26.24C20.67 26.88 21.19 27.41 21.83 27.41C22.48 27.41 23 26.88 23 26.24Z" />
		</g>
	</g>
	<g id="Layer">
		<g id="Layer">
			<path id="Layer" class="shp0" d="M22.48 9.71L11.93 9.71C11.52 9.71 11.19 10.04 11.19 10.45C11.19 10.86 11.52 11.19 11.93 11.19L22.48 11.19C22.89 11.19 23.22 10.86 23.22 10.45C23.22 10.04 22.89 9.71 22.48 9.71Z" />
		</g>
	</g>
	<g id="Layer">
		<g id="Layer">
			<path id="Layer" class="shp0" d="M21.91 13.54L12.5 13.54C12.1 13.54 11.77 13.87 11.77 14.27C11.77 14.68 12.1 15.01 12.5 15.01L21.91 15.01C22.32 15.01 22.65 14.68 22.65 14.27C22.65 13.87 22.32 13.54 21.91 13.54Z" />
		</g>
	</g>
	<g id="Layer">
		<g id="Layer">
			<path id="Layer" fill-rule="evenodd" class="shp0" d="M29.97 7.66L27.91 17.66C27.77 18.34 27.16 18.83 26.47 18.83L8.25 18.83L8.68 20.94L26.33 20.94C26.74 20.94 27.07 21.27 27.07 21.68C27.07 22.08 26.74 22.41 26.33 22.41L8.68 22.41C7.99 22.41 7.38 21.92 7.24 21.24L3.68 3.94L0.44 2.53C0.07 2.37 -0.1 1.94 0.06 1.56C0.22 1.19 0.66 1.02 1.03 1.18L4.26 2.58C4.7 2.78 5.02 3.17 5.12 3.64L5.58 5.89L28.53 5.89C28.97 5.89 29.39 6.09 29.67 6.43C29.95 6.78 30.06 7.22 29.97 7.66ZM28.53 7.36L5.89 7.36L7.95 17.36L26.47 17.36L28.53 7.36Z" />
		</g>
	</g>
	<g id="Layer">
	</g>
	<g id="Layer">
	</g>
	<g id="Layer">
	</g>
	<g id="Layer">
	</g>
	<g id="Layer">
	</g>
	<g id="Layer">
	</g>
	<g id="Layer">
	</g>
	<g id="Layer">
	</g>
	<g id="Layer">
	</g>
	<g id="Layer">
	</g>
	<g id="Layer">
	</g>
	<g id="Layer">
	</g>
	<g id="Layer">
	</g>
	<g id="Layer">
	</g>
	<g id="Layer">
	</g>
</svg>